<?xml version="1.0" encoding="utf-8"?>
<!-- Generator: Adobe Illustrator 18.0.0, SVG Export Plug-In . SVG Version: 6.00 Build 0)  -->
<!DOCTYPE svg PUBLIC "-//W3C//DTD SVG 1.1//EN" "http://www.w3.org/Graphics/SVG/1.1/DTD/svg11.dtd">
<svg version="1.1" id="Layer_1" xmlns="http://www.w3.org/2000/svg" xmlns:xlink="http://www.w3.org/1999/xlink" x="0px" y="0px"
	 viewBox="-284.5 185.7 852.6 89" enable-background="new -284.5 185.7 852.6 89" xml:space="preserve">
<g>
	<path fill="#EA492F" d="M-284.5,187.3h24.3l12.9,35.1c0.6,1.8,1.5,4.5,2.5,8.2l2,6.9h0.5l2-6.9c1.1-3.7,1.9-6.4,2.5-8.2l12.4-35.1
		h24.3v85.8h-20.6v-25.3c0-3.3,0.3-7.5,0.8-12.6c0.5-5.1,1.1-9.9,1.7-14.3l0.4-3.7h-0.5l-7.1,20.6l-10.6,28.4h-12.1l-10.6-28.4
		l-6.9-20.6h-0.5l0.4,3.7c0.6,4.4,1.2,9.2,1.7,14.3c0.5,5.1,0.8,9.3,0.8,12.6v25.3h-20.3V187.3z"/>
	<path fill="#EA492F" d="M-182.1,187.3h22.7v85.8h-22.7V187.3z"/>
	<path fill="#EA492F" d="M-123.7,269.7c-6.2-3.3-11.2-8.2-14.8-14.8c-3.7-6.6-5.5-14.6-5.5-24c0-9.2,1.9-17.3,5.7-24.1
		c3.8-6.8,8.9-12,15.2-15.6c6.3-3.6,13.1-5.4,20.5-5.4c5.3,0,10.2,1.1,14.8,3.2c4.6,2.1,8.5,4.8,11.9,8.2l-11.9,14.5
		c-2.4-2.1-4.7-3.7-6.9-4.8c-2.2-1.1-4.7-1.6-7.4-1.6c-3.3,0-6.4,1-9.3,3c-2.9,2-5.1,4.9-6.9,8.6c-1.7,3.7-2.6,8.1-2.6,13.1
		c0,7.9,1.7,14.1,5,18.5c3.3,4.4,7.8,6.6,13.5,6.6c5.8,0,11-2.5,15.6-7.4l11.9,14.3c-3.6,4.2-7.8,7.4-12.6,9.5
		c-4.8,2.1-10,3.2-15.6,3.2C-110.6,274.7-117.5,273-123.7,269.7z"/>
	<path fill="#EA492F" d="M-63,187.3h22.7v31.9h25.6v-31.9H8v85.8h-22.7V239h-25.6v34.1H-63V187.3z"/>
	<path fill="#EA492F" d="M67.6,254.9h-24l-4.2,18.2H16.1l26.1-85.8h27.5l26.1,85.8h-24L67.6,254.9z M63.5,237.3l-1.5-5.9
		c-1.1-4.5-2.3-9.4-3.4-14.8l-2.9-12.4h-0.5l-0.8,3.7c-1.9,9.7-3.7,17.5-5.3,23.5l-1.5,5.9H63.5z"/>
	<path fill="#EA492F" d="M104,187.3h55.4v19h-32.7v13.5h28v19h-28v15.3h34.1v19H104V187.3z"/>
	<path fill="#EA492F" d="M177.4,187.3h22.7v66.8h32.5v19h-55.2V187.3z"/>
	<path fill="#EA492F" d="M290.1,206.3h-22.7v-19h68.1v19h-22.7v66.8h-22.7V206.3z"/>
	<path fill="#EA492F" d="M383.6,254.9h-24l-4.2,18.2h-23.2l26.1-85.8h27.5l26.1,85.8h-24L383.6,254.9z M379.5,237.3l-1.5-5.9
		c-1.1-4.5-2.3-9.4-3.4-14.8l-2.9-12.4h-0.5l-0.8,3.7c-1.9,9.7-3.7,17.5-5.3,23.5l-1.5,5.9H379.5z"/>
	<path fill="#EA492F" d="M420,187.3h30.9c10,0,17.9,1.6,23.8,4.8c5.8,3.2,8.7,8.7,8.7,16.6c0,3.9-1,7.6-3,11.2c-2,3.6-4.6,6-7.8,7.3
		v0.5c4.4,1.3,8,3.7,10.7,7c2.7,3.3,4.1,7.7,4.1,13.1c0,8.4-3.2,14.8-9.5,19c-6.3,4.2-14.4,6.3-24.3,6.3H420V187.3z M450.4,220.8
		c3.6,0,6.3-0.8,8.1-2.3c1.8-1.5,2.7-3.7,2.7-6.4c0-2.6-0.9-4.5-2.6-5.7c-1.8-1.1-4.5-1.7-8.2-1.7h-7.7v16.1H450.4z M451.9,255.7
		c8.8,0,13.2-3.2,13.2-9.5c0-3.1-1.1-5.3-3.2-6.7c-2.1-1.4-5.5-2-10-2h-9.2v18.2H451.9z"/>
	<path fill="#EA492F" d="M500.8,187.3h30.9c10,0,17.9,1.6,23.8,4.8c5.8,3.2,8.7,8.7,8.7,16.6c0,3.9-1,7.6-3,11.2
		c-2,3.6-4.6,6-7.8,7.3v0.5c4.4,1.3,8,3.7,10.7,7c2.7,3.3,4.1,7.7,4.1,13.1c0,8.4-3.2,14.8-9.5,19c-6.3,4.2-14.4,6.3-24.3,6.3h-33.5
		V187.3z M531.1,220.8c3.6,0,6.3-0.8,8.1-2.3c1.8-1.5,2.7-3.7,2.7-6.4c0-2.6-0.9-4.5-2.6-5.7c-1.8-1.1-4.5-1.7-8.2-1.7h-7.7v16.1
		H531.1z M532.7,255.7c8.8,0,13.2-3.2,13.2-9.5c0-3.1-1.1-5.3-3.2-6.7c-2.1-1.4-5.5-2-10-2h-9.2v18.2H532.7z"/>
</g>
</svg>
