<?xml version="1.0" encoding="utf-8"?>
<!-- Generator: Adobe Illustrator 18.0.0, SVG Export Plug-In . SVG Version: 6.00 Build 0)  -->
<!DOCTYPE svg PUBLIC "-//W3C//DTD SVG 1.1//EN" "http://www.w3.org/Graphics/SVG/1.1/DTD/svg11.dtd">
<svg version="1.1" xmlns="http://www.w3.org/2000/svg" xmlns:xlink="http://www.w3.org/1999/xlink" x="0px" y="0px"
	 viewBox="0 0 400 400" enable-background="new 0 0 400 400" xml:space="preserve">
<g id="Layer_1" display="none">
	<g id="mQfo9S.tif" display="inline">
		<g>
			<path fill="#262626" d="M244.7,96.1c3.5,0,7,0,10.5,0c2.1,0.4,4.2,0.8,6.3,1.3c9.8,2.2,18.3,6.8,25.4,13.9c1.1,1.1,2,1.5,3.5,0.9
				c6.9-2.3,13.8-4.4,20.6-6.9c3.6-1.3,6.9-3.3,10.7-5.2c-1.9,6.2-4.6,11.6-8.6,16.1c-3.9,4.5-8.4,8.4-12.5,12.4
				c9.3-1.1,18.6-3.9,28.2-7.9c-0.7,1-0.9,1.5-1.3,2c-6.3,9.1-13.9,16.9-22.8,23.5c-1.6,1.2-2.1,2.5-2,4.4c0.4,12.6-0.9,25-3.8,37.3
				c-7.6,32-23.2,59.3-47.9,81.1c-21.8,19.3-47.4,30.5-76.3,34.3c-4.1,0.5-8.3,1-12.4,1.5c-5.7,0-11.4,0-17.1,0
				c-4.9-0.5-9.8-0.9-14.7-1.6c-17.5-2.7-34.2-8.3-49.7-16.8c-2.7-1.5-5.3-3.1-7.9-4.7c13.9,0.9,27.3-0.3,40.4-4
				c13.2-3.7,25.2-9.7,36.4-18.5c-11.7-0.4-21.6-3.9-30.4-10.6c-8.8-6.6-15-15.2-18.5-25.9c2.9,0.3,5.4,0.7,7.9,0.7
				c2.5,0.1,5-0.1,7.5-0.4c2.4-0.2,4.7-0.7,7.1-1.1c-30.6-8-42.2-35.9-40.7-52.2c3.6,1.4,7.2,3,10.9,4c3.7,1,7.6,1.5,11.4,2.2
				c0-0.2,0.1-0.5,0.1-0.7c-26.4-19.2-26.5-51.9-15.1-69.5c28.4,33.4,64.4,51.8,108.5,54.8c-1.3-7-1.8-13.8-0.6-20.5
				c3.6-19.6,14.8-33.3,33.3-40.7C235.5,98,240.2,97.3,244.7,96.1z"/>
		</g>
	</g>
</g>
<g id="Layer_2" display="none">
	<g id="Pd2ka5.tif" display="inline">
		<g>
			<path fill="#262626" d="M200,65.7c18.3,0.3,36.6,0.4,54.9,1c17,0.5,33.4,3.9,47.7,14c16.6,11.8,25.8,28.2,29.1,48.1
				c2.4,14.5,2.3,29.3,2.4,43.9c0.1,23.2,0.2,46.4-0.2,69.6c-0.2,14.3-0.7,28.6-5.5,42.3c-9.1,25.8-27.5,40.9-53.9,46.5
				c-15.6,3.3-31.5,2.9-47.4,3c-23.1,0.1-46.2,0.2-69.4-0.2c-14.2-0.2-28.4-0.6-42-5.4c-25.9-9.1-41.1-27.5-46.8-54
				c-2.6-12-2.8-24.3-2.9-36.5c-0.2-26.7-0.2-53.5,0.1-80.2c0.2-14.3,0.7-28.6,5.5-42.3c9.1-25.8,27.5-40.9,53.9-46.5
				c15.6-3.3,31.5-2.8,47.4-3c9-0.1,18,0,27,0C200,65.9,200,65.8,200,65.7z M310.3,200.1c-0.1,0-0.3,0-0.4,0
				c0-11.3,0.3-22.5-0.1-33.8c-0.4-11.4-0.8-22.9-2.3-34.2c-2.8-20.4-16.6-34.5-36.7-39c-12.1-2.7-24.5-2.6-36.8-2.8
				c-22.6-0.3-45.3-0.3-67.9,0c-11.4,0.2-23,0.6-34.2,2.4c-19.1,3-32.1,13.8-37.9,32.7c-3.4,11.3-3.4,23-3.6,34.6
				c-0.3,18.2-0.5,36.4-0.3,54.7c0.2,16.6,0.3,33.3,1.9,49.8c2.1,21.9,14.7,37.4,37.1,42.6c12.2,2.8,24.7,2.6,37.1,2.8
				c22.5,0.3,45.1,0.3,67.6,0c11.4-0.2,22.9-0.6,34.2-2.4c19.3-3,32.7-13.9,38-33.2c1.8-6.3,2.7-13,3-19.6
				C309.7,236.5,309.9,218.3,310.3,200.1z"/>
			<path fill="#262626" d="M200,269c-38.5,0-68.8-30.6-68.9-69.3c-0.1-37.6,31.4-68.8,69.5-68.5c37.4,0.3,68.7,31.4,68.3,69.7
				C268.5,238.4,237.9,269,200,269z M244.7,200c-0.1-24.5-20.3-44.6-44.7-44.6c-24.5,0-44.6,20.2-44.7,44.7
				c0,24.6,20.3,44.9,44.9,44.7C224.7,244.7,244.7,224.5,244.7,200z"/>
			<path fill="#262626" d="M271.7,112.5c9.1,0,16,7,16,16.2c0,8.8-7.2,16.1-16,16.1c-8.9,0-16.3-7.4-16.3-16.2
				C255.4,119.6,262.6,112.4,271.7,112.5z"/>
		</g>
	</g>
</g>
<g id="Layer_3" display="none">
	<g id="be3X1r.tif" display="inline">
		<g>
			<path fill="#262626" d="M160.1,304.8c0-7.7,0-15.3,0.1-23c0-10.6,0.1-21.1,0.1-31.7c0-10,0-20.1,0.1-30.1
				c0-15.6,0.1-31.2,0.1-46.7c0-9.7-0.1-19.4-0.2-29.1c0-1.8-0.1-3.6-0.1-5.4c0-0.3,0-0.7,0-1.1c18.5,0,37,0,55.5,0
				c0,7.7,0,15.4,0,23.2c0.5-0.2,0.6-0.6,0.8-0.8c2.7-4,5.7-7.8,9.1-11.2c7.4-7.2,16.3-11.8,26.4-13.8c6.7-1.3,13.4-1.6,20.1-1
				c7.4,0.6,14.4,2.2,21.2,5.2c11.8,5.3,20.6,13.8,26.7,25.1c3.4,6.4,5.7,13.1,7.2,20.2c1.1,5.3,1.8,10.6,2.2,16
				c0.1,2.4,0.1,4.7,0.1,7.1c0,31.9,0,63.9,0,95.8c0,0.5,0,0.9-0.1,1.4c-18.5,0-37,0-55.4,0c0-0.1,0-0.3,0-0.4c0-29.9,0-59.9,0-89.8
				c0-4.4-0.4-8.8-1.2-13.2c-0.8-4.1-2.1-8.1-4.3-11.7c-3.3-5.7-8.1-9.4-14.4-11.1c-3.2-0.8-6.4-1.1-9.7-0.9
				c-5.3,0.2-10.1,1.7-14.5,4.7c-4.9,3.3-8.5,7.7-11.1,12.9c-1,2-1.8,4-2.2,6.2c-0.6,3.1-0.8,6.1-0.8,9.3c0,31,0,61.9,0,92.9
				c0,0.4,0,0.9,0,1.3C197.2,304.8,178.6,304.8,160.1,304.8z"/>
			<path fill="#262626" d="M73.9,304.8c0-0.5,0-0.9,0-1.4c0-54.7,0-109.5,0-164.2c0-0.5,0-0.9,0-1.5c18.5,0,37,0,55.5,0
				c0,0.2,0.1,0.3,0.1,0.5c0,0.3,0,0.7,0,1c0,54.7,0,109.4,0,164.1c0,0.5-0.1,1-0.1,1.5C110.9,304.8,92.4,304.8,73.9,304.8z"/>
			<path fill="#262626" d="M105.1,57.2c0.9,0.1,1.8,0.3,2.7,0.4c5.6,0.8,10.7,2.8,15.1,6.4c5.3,4.4,8.5,10,9.7,16.8
				c1.2,6.3,0.5,12.4-2.3,18.1c-3.4,7-9,11.6-16.2,14.2c-4.9,1.7-9.9,2.2-15,1.9c-4.7-0.3-9.3-1.3-13.5-3.6
				c-8-4.3-12.8-11-14.5-19.9c-0.2-0.9-0.4-1.8-0.6-2.6c0-1.8,0-3.5,0-5.3c0.2-1,0.4-2,0.6-2.9c1.1-5.9,3.7-10.9,8.1-15
				c4.8-4.5,10.7-7,17.1-7.9c0.9-0.1,1.8-0.3,2.7-0.4C101,57.2,103,57.2,105.1,57.2z"/>
		</g>
	</g>
</g>
<g id="Layer_4" display="none">
	<g id="O9BfwT.tif" display="inline">
		<g>
			<path fill="#262626" stroke="#262626" stroke-width="9" stroke-miterlimit="10" d="M291,134c0,57,0,114,0,171
				c-2.9,9.1-8.9,15.1-18,18c-48.7,0-97.3,0-146,0c-9.1-2.9-15.2-8.8-18-18c0-70,0-140,0-210c2.8-9.2,8.8-15.2,18-18
				c35.7,0,71.3,0,107,0C253,96,272,115,291,134z M226.6,88c-2.3,0-3.9,0-5.6,0c-29,0-58,0-87,0c-10.4,0-14,3.7-14,14.2
				c0,65.1,0,130.3,0,195.4c0,10.8,3.6,14.4,14.4,14.4c43.7,0,87.3,0,131,0c11.2,0,14.7-3.5,14.7-14.5c0-50,0-100,0-150
				c0-1.8,0-3.6,0-6.1c-2.1,0-3.9,0-5.7,0c-13.3,0-26.7,0-40,0c-6.3,0-7.7-1.4-7.7-7.7c-0.1-12,0-24,0-36
				C226.6,94.6,226.6,91.5,226.6,88z M270.1,130.2c-10.7-10.7-21.7-21.6-32.2-32.2c0,10.2,0,21.2,0,32.2
				C249.2,130.2,260.1,130.2,270.1,130.2z"/>
			<path fill="#262626" stroke="#262626" stroke-width="9" stroke-miterlimit="10" d="M200,154.5c15.3,0,30.6,0.1,45.9,0
				c3.9,0,7.3,0.7,7.2,5.4c-0.1,4.6-3.4,5.5-7.3,5.5c-30.6,0-61.2,0-91.8,0c-3.9,0-7.2-1.1-7.2-5.6c0-4.7,3.5-5.3,7.3-5.3
				C169.4,154.6,184.7,154.5,200,154.5z"/>
			<path fill="#262626" stroke="#262626" stroke-width="9" stroke-miterlimit="10" d="M200.1,250.5c-15.3,0-30.6-0.1-45.9,0
				c-3.9,0-7.3-0.6-7.4-5.3c0-4.5,3.3-5.6,7.2-5.6c30.6,0,61.2,0,91.8,0c3.9,0,7.3,0.9,7.3,5.5c0.1,4.7-3.3,5.5-7.2,5.4
				C230.7,250.4,215.4,250.5,200.1,250.5z"/>
			<path fill="#262626" stroke="#262626" stroke-width="9" stroke-miterlimit="10" d="M200,207.9c-14.5,0-29,0-43.5,0
				c-1.3,0-2.7,0-4,0c-3.5-0.2-5.8-1.8-5.8-5.5c0.1-3.7,2.6-5.1,6-5.3c1,0,2,0,3,0c29.5,0,59,0,88.5,0c1.5,0,3.4-0.4,4.4,0.3
				c1.8,1.3,4.5,3.4,4.3,4.9c-0.2,1.9-2.6,3.9-4.5,5.3c-1,0.7-2.9,0.3-4.4,0.3C229.3,207.9,214.7,207.9,200,207.9z"/>
		</g>
	</g>
</g>
<g id="Layer_5">
	<g id="_x36_z4YCy.tif">
		<g>
			<path fill="#262626" d="M35.1,152.6c-5.8-6.8-11.5-13.6-17.3-20.4c8.4-6.9,16.5-13.8,24.7-20.5c14.7-12,29.4-24.1,44.4-35.7
				c9.1-7.1,19-13.2,30.1-16.8c20-6.6,39.4,1.3,49.6,19.7c6.2,11.2,9,23.5,11.3,36c5.2,28.3,8.6,56.9,16.4,84.6
				c3.2,11.3,6.5,22.6,12.8,32.6c1.2,1.9,2.6,3.8,4.2,5.4c4.4,4.5,8.9,4.8,14.5,1.1c6.6-4.4,11.6-10.3,16.4-16.4
				c11.9-15.2,22.2-31.5,30.3-49.2c3.6-8,5.8-16.3,5.2-25.1c-0.8-12.3-7.6-19.1-20-20.2c-9.3-0.8-18.2,0.8-27,3.5
				c-1.2,0.4-2.4,0.8-4.3,1.4c1-3,1.9-5.5,2.8-8c6-16,14-30.7,25.9-43.2c13.7-14.3,30.3-23,49.7-26.3c12.9-2.2,25.9-2.9,38.9-0.1
				c19,4.1,30.8,15.9,35.5,34.5c5.9,23.4,2.9,46.2-6.3,68.3c-9.9,23.8-23.8,45.2-39.1,65.8c-20.7,27.9-42.8,54.7-68.1,78.7
				c-14.4,13.6-29.7,25.9-47.4,34.9c-10.2,5.2-20.9,8.7-32.4,9.7c-14.1,1.2-25.2-4.4-34.3-14.6c-13.5-15.2-21.3-33.3-27-52.6
				c-9.6-32.7-19.3-65.4-29.3-98c-3.9-12.7-8.8-25-17.1-35.6c-1.7-2.2-3.7-4.2-5.9-5.9c-4.4-3.5-9.2-4.4-14.4-1.2
				c-6.2,3.8-12.4,7.5-18.7,11.2C38,150.8,36.7,151.6,35.1,152.6z"/>
		</g>
	</g>
</g>
</svg>
