<?xml version="1.0" encoding="utf-8"?>
<!-- Generator: Adobe Illustrator 18.0.0, SVG Export Plug-In . SVG Version: 6.00 Build 0)  -->
<!DOCTYPE svg PUBLIC "-//W3C//DTD SVG 1.1//EN" "http://www.w3.org/Graphics/SVG/1.1/DTD/svg11.dtd">
<svg version="1.1" xmlns="http://www.w3.org/2000/svg" xmlns:xlink="http://www.w3.org/1999/xlink" x="0px" y="0px"
	 viewBox="0 0 268.3 277.1" enable-background="new 0 0 268.3 277.1" xml:space="preserve">
<g id="Layer_1" display="none">
	<g id="mQfo9S.tif" display="inline">
		<g>
			<path fill="#262626" d="M178.8,38.9c3.5,0,7,0,10.5,0c2.1,0.4,4.2,0.8,6.3,1.3c9.8,2.2,18.3,6.8,25.4,13.9c1.1,1.1,2,1.5,3.5,0.9
				c6.9-2.3,13.8-4.4,20.6-6.9c3.6-1.3,6.9-3.3,10.7-5.2c-1.9,6.2-4.6,11.6-8.6,16.1c-3.9,4.5-8.4,8.4-12.5,12.4
				c9.3-1.1,18.6-3.9,28.2-7.9c-0.7,1-0.9,1.5-1.3,2c-6.3,9.1-13.9,16.9-22.8,23.5c-1.6,1.2-2.1,2.5-2,4.4c0.4,12.6-0.9,25-3.8,37.3
				c-7.6,32-23.2,59.3-47.9,81.1c-21.8,19.3-47.4,30.5-76.3,34.3c-4.1,0.5-8.3,1-12.4,1.5c-5.7,0-11.4,0-17.1,0
				c-4.9-0.5-9.8-0.9-14.7-1.6c-17.5-2.7-34.2-8.3-49.7-16.8c-2.7-1.5-5.3-3.1-7.9-4.7c13.9,0.9,27.3-0.3,40.4-4
				c13.2-3.7,25.2-9.7,36.4-18.5c-11.7-0.4-21.6-3.9-30.4-10.6c-8.8-6.6-15-15.2-18.5-25.9c2.9,0.3,5.4,0.7,7.9,0.7
				c2.5,0.1,5-0.1,7.5-0.4c2.4-0.2,4.7-0.7,7.1-1.1c-30.6-8-42.2-35.9-40.7-52.2c3.6,1.4,7.2,3,10.9,4c3.7,1,7.6,1.5,11.4,2.2
				c0-0.2,0.1-0.5,0.1-0.7C12.9,99.2,12.8,66.4,24.2,48.9c28.4,33.4,64.4,51.8,108.5,54.8c-1.3-7-1.8-13.8-0.6-20.5
				c3.6-19.6,14.8-33.3,33.3-40.7C169.6,40.8,174.3,40.1,178.8,38.9z"/>
		</g>
	</g>
</g>
<g id="Layer_2" display="none">
	<g id="cbg9jv.tif" display="inline">
		<g>
			<path fill="#262626" d="M265.1,58.6c0,53.3,0,106.6,0,159.9c-0.1,0.3-0.1,0.5-0.2,0.8c-0.5,2.3-0.8,4.7-1.6,7
				c-3.8,10.4-13.5,17.1-24.6,17.1c-69.8,0-139.6,0-209.5,0c-0.2,0-0.5,0-0.7,0c-4.3-0.1-8.3-1.1-12-3.3c-8.9-5.2-13.5-13-13.5-23.3
				c-0.1-17.9,0-35.8,0-53.7c0-34.1,0-68.2,0-102.2c0-4.4,0.7-8.6,2.8-12.4c5.2-9.7,13.3-14.5,24.3-14.5c69.2,0,138.5,0,207.7,0
				c1.4,0,2.8,0,4.2,0.2c10.8,1.3,19.8,9.4,22.2,19.9C264.7,55.5,264.9,57.1,265.1,58.6z M225.8,99.7c-0.6,0.4-1,0.6-1.3,0.9
				c-29.9,21.2-59.7,42.4-89.6,63.6c-0.5,0.4-0.9,0.4-1.4,0c-3.2-2.3-6.4-4.6-9.7-6.9c-26.8-19-53.5-38-80.3-57
				c-0.3-0.2-0.6-0.4-1-0.7c0,39.2,0,78.2,0,117.3c61.1,0,122.2,0,183.3,0C225.8,178,225.8,139,225.8,99.7z M42.5,60
				c0,0.1-0.1,0.2-0.1,0.2c0.3,0.3,0.6,0.5,0.9,0.8c30,21.3,60,42.5,89.9,63.8c0.6,0.5,1,0.5,1.7,0c20.9-14.8,41.8-29.7,62.7-44.5
				c9.2-6.5,18.3-13,27.4-19.5c0.3-0.2,0.5-0.5,0.9-0.9C164.6,60,103.6,60,42.5,60z"/>
		</g>
	</g>
</g>
<g id="Layer_3" display="none">
	<g id="be3X1r.tif" display="inline">
		<g>
			<path fill="#262626" d="M94.2,247.7c0-7.7,0-15.3,0.1-23c0-10.6,0.1-21.1,0.1-31.7c0-10,0-20.1,0.1-30.1
				c0-15.6,0.1-31.2,0.1-46.7c0-9.7-0.1-19.4-0.2-29.1c0-1.8-0.1-3.6-0.1-5.4c0-0.3,0-0.7,0-1.1c18.5,0,37,0,55.5,0
				c0,7.7,0,15.4,0,23.2c0.5-0.2,0.6-0.6,0.8-0.8c2.7-4,5.7-7.8,9.1-11.2c7.4-7.2,16.3-11.8,26.4-13.8c6.7-1.3,13.4-1.6,20.1-1
				c7.4,0.6,14.4,2.2,21.2,5.2c11.8,5.3,20.6,13.8,26.7,25.1c3.4,6.4,5.7,13.1,7.2,20.2c1.1,5.3,1.8,10.6,2.2,16
				c0.1,2.4,0.1,4.7,0.1,7.1c0,31.9,0,63.9,0,95.8c0,0.5,0,0.9-0.1,1.4c-18.5,0-37,0-55.4,0c0-0.1,0-0.3,0-0.4c0-29.9,0-59.9,0-89.8
				c0-4.4-0.4-8.8-1.2-13.2c-0.8-4.1-2.1-8.1-4.3-11.7c-3.3-5.7-8.1-9.4-14.4-11.1c-3.2-0.8-6.4-1.1-9.7-0.9
				c-5.3,0.2-10.1,1.7-14.5,4.7c-4.9,3.3-8.5,7.7-11.1,12.9c-1,2-1.8,4-2.2,6.2c-0.6,3.1-0.8,6.1-0.8,9.3c0,31,0,61.9,0,92.9
				c0,0.4,0,0.9,0,1.3C131.3,247.7,112.8,247.7,94.2,247.7z"/>
			<path fill="#262626" d="M8,247.7c0-0.5,0-0.9,0-1.4c0-54.7,0-109.5,0-164.2c0-0.5,0-0.9,0-1.5c18.5,0,37,0,55.5,0
				c0,0.2,0.1,0.3,0.1,0.5c0,0.3,0,0.7,0,1c0,54.7,0,109.4,0,164.1c0,0.5-0.1,1-0.1,1.5C45,247.7,26.5,247.7,8,247.7z"/>
			<path fill="#262626" d="M39.2,0c0.9,0.1,1.8,0.3,2.7,0.4C47.4,1.2,52.6,3.2,57,6.8c5.3,4.4,8.5,10,9.7,16.8
				c1.2,6.3,0.5,12.4-2.3,18.1c-3.4,7-9,11.6-16.2,14.2c-4.9,1.7-9.9,2.2-15,1.9c-4.7-0.3-9.3-1.3-13.5-3.6
				c-8-4.3-12.8-11-14.5-19.9c-0.2-0.9-0.4-1.8-0.6-2.6c0-1.8,0-3.5,0-5.3c0.2-1,0.4-2,0.6-2.9c1.1-5.9,3.7-10.9,8.1-15
				c4.8-4.5,10.7-7,17.1-7.9c0.9-0.1,1.8-0.3,2.7-0.4C35.1,0,37.2,0,39.2,0z"/>
		</g>
	</g>
</g>
<g id="Layer_4">
	<g id="ndH2TN.tif">
		<g>
			<path fill="#262626" d="M262.2,142.2c0,11.9-2.4,24.9-5,34.5c-11.9,43.8-38.9,69.8-79.1,85.3c-9,3.5-12.1,1.2-12.1-8.3
				c0-10,0-20,0.1-30c0.1-9.1-1.6-17.6-8.1-25.1c4.7-0.9,9-1.7,13.3-2.7c27.1-6.1,41.6-23.2,44.1-50.9c1.4-15.7-0.8-30.2-11.2-42.7
				c-0.8-1-0.8-3.1-0.4-4.5c2.3-8.8,1.6-17.4-0.6-26.2c-1.1-4.4-3.6-6.1-7.5-4.7c-8.4,3.1-16.7,6.3-24.7,10.2
				c-3.5,1.8-6.4,2.5-10.2,1.6c-18.3-4.4-36.6-3.9-55,0.1c-2.1,0.5-4.8-0.2-6.8-1c-8.1-3.4-15.8-7.7-24.1-10.5
				c-7-2.4-8.8-1.2-9.8,6.1C64,80.9,64,88.8,64.6,96.5c0.3,3.3,0.1,5.6-2,8c-17.4,20.6-11.6,67,11.7,82c9.9,6.4,20.7,9.6,32.2,11.3
				c1,0.1,1.9,0.3,2.5,0.4c-2.1,5.4-4,10.8-6.2,16c-0.4,1-1.8,1.9-2.9,2.4c-13.1,5.4-25.5,1.3-33.7-10.3c-3.2-4.5-7.7-8.1-11.7-12
				c-1-1-2.7-1.6-4.1-1.6c-3.3,0-6.7,0.4-10,0.7c1.9,2.3,3.8,4.5,5.7,6.8c3.8,4.7,9.1,9,11.1,14.4c6.2,16.4,21.3,22,38.3,19.9
				c2-0.2,3.9-0.6,6.7-1c0,8.7,0.3,17.1-0.1,25.5c-0.2,3.7-4.3,5.5-8.7,4c-5.8-2-11.6-4.3-17-7.1c-49-24.7-77-78.7-68.9-132.4
				c8.4-55.5,50.6-99,105.5-107.8c10.6-1.7,22.8-2.8,35.6-1c52,7.5,96,41.9,108.8,92.7C262.2,126.7,262.2,134.8,262.2,142.2z"/>
		</g>
	</g>
</g>
</svg>
