<?xml version="1.0" encoding="utf-8"?>
<!-- Generator: Adobe Illustrator 18.0.0, SVG Export Plug-In . SVG Version: 6.00 Build 0)  -->
<!DOCTYPE svg PUBLIC "-//W3C//DTD SVG 1.1//EN" "http://www.w3.org/Graphics/SVG/1.1/DTD/svg11.dtd">
<svg version="1.1" id="Layer_1" xmlns="http://www.w3.org/2000/svg" xmlns:xlink="http://www.w3.org/1999/xlink" x="0px" y="0px"
	 viewBox="0 0 265.1 127.4" enable-background="new 0 0 265.1 127.4" xml:space="preserve">
<line fill="none" stroke="#EA492F" stroke-width="7.3585" stroke-miterlimit="10" x1="53.4" y1="15.9" x2="53.4" y2="119.5"/>
<path fill="none" stroke="#EA492F" stroke-width="7.3585" stroke-miterlimit="10" d="M1.9,35.5c0,0,18.4-11,51.5-19.6
	s55.8-12.3,55.8-12.3"/>
<path fill="none" stroke="#EA492F" stroke-width="8.4704" stroke-miterlimit="10" d="M74.1,119.9c0,0,2.1-78.9,25.4-78.9
	s29.7,86.1,29.7,86.1"/>
<path fill="none" stroke="#EA492F" stroke-width="7.3585" stroke-miterlimit="10" d="M149.6,119.5c0,0-5.2-14-5.2-34.4
	s0.6-33.1,12.3-40.4s21.7-3.1,24.8,6.1c3.1,9.2-6.4,19.4-6.4,27.1S193,81,195,92.5c2.1,12.6-7.2,28.5-26.7,24.2"/>
<path fill="none" stroke="#EA492F" stroke-width="7.3585" stroke-miterlimit="10" d="M215.8,119.5c0,0-5.2-14-5.2-34.4
	s0.6-33.1,12.3-40.4s21.7-3.1,24.8,6.1s-6.4,19.4-6.4,27.1s18,3.2,19.9,14.7c2.1,12.6-7.2,28.5-26.7,24.2"/>
</svg>
