<?xml version="1.0" encoding="utf-8"?>
<!-- Generator: Adobe Illustrator 18.0.0, SVG Export Plug-In . SVG Version: 6.00 Build 0)  -->
<!DOCTYPE svg PUBLIC "-//W3C//DTD SVG 1.1//EN" "http://www.w3.org/Graphics/SVG/1.1/DTD/svg11.dtd">
<svg version="1.1" id="Layer_1" xmlns="http://www.w3.org/2000/svg" xmlns:xlink="http://www.w3.org/1999/xlink" x="0px" y="0px"
	 viewBox="0 103 420 197" enable-background="new 0 103 420 197" xml:space="preserve">
<line fill="none" stroke="#EA492F" stroke-width="7.3585" stroke-miterlimit="10" x1="80.6" y1="127.9" x2="80.6" y2="284.2"/>
<path fill="none" stroke="#EA492F" stroke-width="7.3585" stroke-miterlimit="10" d="M2.9,157.5c0,0,27.8-16.6,77.7-29.6
	s84.2-18.6,84.2-18.6"/>
<path fill="none" stroke="#EA492F" stroke-width="8.4704" stroke-miterlimit="10" d="M111.8,284.8c0,0,3.2-119,38.3-119
	s44.8,129.9,44.8,129.9"/>
<path fill="none" stroke="#EA492F" stroke-width="7.3585" stroke-miterlimit="10" d="M225.7,284.2c0,0-7.8-21.1-7.8-51.9
	s0.9-49.9,18.6-61c17.7-11,32.7-4.7,37.4,9.2s-9.7,29.3-9.7,40.9c0,11.6,27,4.7,30,22c3.2,19-10.9,43-40.3,36.5"/>
<path fill="none" stroke="#EA492F" stroke-width="7.3585" stroke-miterlimit="10" d="M325.6,284.2c0,0-7.8-21.1-7.8-51.9
	s0.9-49.9,18.6-61c17.7-11,32.7-4.7,37.4,9.2s-9.7,29.3-9.7,40.9c0,11.6,27.2,4.8,30,22.2c3.2,19-10.9,43-40.3,36.5"/>
</svg>
