<?xml version="1.0" encoding="utf-8"?>
<!-- Generator: Adobe Illustrator 18.0.0, SVG Export Plug-In . SVG Version: 6.00 Build 0)  -->
<!DOCTYPE svg PUBLIC "-//W3C//DTD SVG 1.1//EN" "http://www.w3.org/Graphics/SVG/1.1/DTD/svg11.dtd">
<svg version="1.1" xmlns="http://www.w3.org/2000/svg" xmlns:xlink="http://www.w3.org/1999/xlink" x="0px" y="0px"
	 viewBox="0 0 268.3 277.1" enable-background="new 0 0 268.3 277.1" xml:space="preserve">
<g id="Layer_1">
	<g id="mQfo9S.tif">
		<g>
			<path fill="#262626" d="M178.8,38.9c3.5,0,7,0,10.5,0c2.1,0.4,4.2,0.8,6.3,1.3c9.8,2.2,18.3,6.8,25.4,13.9c1.1,1.1,2,1.5,3.5,0.9
				c6.9-2.3,13.8-4.4,20.6-6.9c3.6-1.3,6.9-3.3,10.7-5.2c-1.9,6.2-4.6,11.6-8.6,16.1c-3.9,4.5-8.4,8.4-12.5,12.4
				c9.3-1.1,18.6-3.9,28.2-7.9c-0.7,1-0.9,1.5-1.3,2c-6.3,9.1-13.9,16.9-22.8,23.5c-1.6,1.2-2.1,2.5-2,4.4c0.4,12.6-0.9,25-3.8,37.3
				c-7.6,32-23.2,59.3-47.9,81.1c-21.8,19.3-47.4,30.5-76.3,34.3c-4.1,0.5-8.3,1-12.4,1.5c-5.7,0-11.4,0-17.1,0
				c-4.9-0.5-9.8-0.9-14.7-1.6c-17.5-2.7-34.2-8.3-49.7-16.8c-2.7-1.5-5.3-3.1-7.9-4.7c13.9,0.9,27.3-0.3,40.4-4
				c13.2-3.7,25.2-9.7,36.4-18.5c-11.7-0.4-21.6-3.9-30.4-10.6c-8.8-6.6-15-15.2-18.5-25.9c2.9,0.3,5.4,0.7,7.9,0.7
				c2.5,0.1,5-0.1,7.5-0.4c2.4-0.2,4.7-0.7,7.1-1.1c-30.6-8-42.2-35.9-40.7-52.2c3.6,1.4,7.2,3,10.9,4c3.7,1,7.6,1.5,11.4,2.2
				c0-0.2,0.1-0.5,0.1-0.7C12.9,99.2,12.8,66.4,24.2,48.9c28.4,33.4,64.4,51.8,108.5,54.8c-1.3-7-1.8-13.8-0.6-20.5
				c3.6-19.6,14.8-33.3,33.3-40.7C169.6,40.8,174.3,40.1,178.8,38.9z"/>
		</g>
	</g>
</g>
<g id="Layer_2" display="none">
	<g id="Pd2ka5.tif" display="inline">
		<g>
			<path fill="#262626" d="M134.1,8.6c18.3,0.3,36.6,0.4,54.9,1c17,0.5,33.4,3.9,47.7,14c16.6,11.8,25.8,28.2,29.1,48.1
				c2.4,14.5,2.3,29.3,2.4,43.9c0.1,23.2,0.2,46.4-0.2,69.6c-0.2,14.3-0.7,28.6-5.5,42.3c-9.1,25.8-27.5,40.9-53.9,46.5
				c-15.6,3.3-31.5,2.9-47.4,3c-23.1,0.1-46.2,0.2-69.4-0.2c-14.2-0.2-28.4-0.6-42-5.4C23.9,262.3,8.8,244,3,217.4
				c-2.6-12-2.8-24.3-2.9-36.5c-0.2-26.7-0.2-53.5,0.1-80.2c0.2-14.3,0.7-28.6,5.5-42.3c9.1-25.8,27.5-40.9,53.9-46.5
				c15.6-3.3,31.5-2.8,47.4-3c9-0.1,18,0,27,0C134.1,8.8,134.1,8.7,134.1,8.6z M244.4,142.9c-0.1,0-0.3,0-0.4,0
				c0-11.3,0.3-22.5-0.1-33.8c-0.4-11.4-0.8-22.9-2.3-34.2c-2.8-20.4-16.6-34.5-36.7-39c-12.1-2.7-24.5-2.6-36.8-2.8
				c-22.6-0.3-45.3-0.3-67.9,0c-11.4,0.2-23,0.6-34.2,2.4c-19.1,3-32.1,13.8-37.9,32.7c-3.4,11.3-3.4,23-3.6,34.6
				c-0.3,18.2-0.5,36.4-0.3,54.7c0.2,16.6,0.3,33.3,1.9,49.8c2.1,21.9,14.7,37.4,37.1,42.6c12.2,2.8,24.7,2.6,37.1,2.8
				c22.5,0.3,45.1,0.3,67.6,0c11.4-0.2,22.9-0.6,34.2-2.4c19.3-3,32.7-13.9,38-33.2c1.8-6.3,2.7-13,3-19.6
				C243.9,179.4,244,161.1,244.4,142.9z"/>
			<path fill="#262626" d="M134.1,211.8c-38.5,0-68.8-30.6-68.9-69.3c-0.1-37.6,31.4-68.8,69.5-68.5c37.4,0.3,68.7,31.4,68.3,69.7
				C202.7,181.3,172.1,211.8,134.1,211.8z M178.8,142.9c-0.1-24.5-20.3-44.6-44.7-44.6c-24.5,0-44.6,20.2-44.7,44.7
				c0,24.6,20.3,44.9,44.9,44.7C158.8,187.6,178.9,167.3,178.8,142.9z"/>
			<path fill="#262626" d="M205.8,55.3c9.1,0,16,7,16,16.2c0,8.8-7.2,16.1-16,16.1c-8.9,0-16.3-7.4-16.3-16.2
				C189.5,62.5,196.8,55.3,205.8,55.3z"/>
		</g>
	</g>
</g>
<g id="Layer_3" display="none">
	<g id="be3X1r.tif" display="inline">
		<g>
			<path fill="#262626" d="M94.2,247.7c0-7.7,0-15.3,0.1-23c0-10.6,0.1-21.1,0.1-31.7c0-10,0-20.1,0.1-30.1
				c0-15.6,0.1-31.2,0.1-46.7c0-9.7-0.1-19.4-0.2-29.1c0-1.8-0.1-3.6-0.1-5.4c0-0.3,0-0.7,0-1.1c18.5,0,37,0,55.5,0
				c0,7.7,0,15.4,0,23.2c0.5-0.2,0.6-0.6,0.8-0.8c2.7-4,5.7-7.8,9.1-11.2c7.4-7.2,16.3-11.8,26.4-13.8c6.7-1.3,13.4-1.6,20.1-1
				c7.4,0.6,14.4,2.2,21.2,5.2c11.8,5.3,20.6,13.8,26.7,25.1c3.4,6.4,5.7,13.1,7.2,20.2c1.1,5.3,1.8,10.6,2.2,16
				c0.1,2.4,0.1,4.7,0.1,7.1c0,31.9,0,63.9,0,95.8c0,0.5,0,0.9-0.1,1.4c-18.5,0-37,0-55.4,0c0-0.1,0-0.3,0-0.4c0-29.9,0-59.9,0-89.8
				c0-4.4-0.4-8.8-1.2-13.2c-0.8-4.1-2.1-8.1-4.3-11.7c-3.3-5.7-8.1-9.4-14.4-11.1c-3.2-0.8-6.4-1.1-9.7-0.9
				c-5.3,0.2-10.1,1.7-14.5,4.7c-4.9,3.3-8.5,7.7-11.1,12.9c-1,2-1.8,4-2.2,6.2c-0.6,3.1-0.8,6.1-0.8,9.3c0,31,0,61.9,0,92.9
				c0,0.4,0,0.9,0,1.3C131.3,247.7,112.8,247.7,94.2,247.7z"/>
			<path fill="#262626" d="M8,247.7c0-0.5,0-0.9,0-1.4c0-54.7,0-109.5,0-164.2c0-0.5,0-0.9,0-1.5c18.5,0,37,0,55.5,0
				c0,0.2,0.1,0.3,0.1,0.5c0,0.3,0,0.7,0,1c0,54.7,0,109.4,0,164.1c0,0.5-0.1,1-0.1,1.5C45,247.7,26.5,247.7,8,247.7z"/>
			<path fill="#262626" d="M39.2,0c0.9,0.1,1.8,0.3,2.7,0.4C47.4,1.2,52.6,3.2,57,6.8c5.3,4.4,8.5,10,9.7,16.8
				c1.2,6.3,0.5,12.4-2.3,18.1c-3.4,7-9,11.6-16.2,14.2c-4.9,1.7-9.9,2.2-15,1.9c-4.7-0.3-9.3-1.3-13.5-3.6
				c-8-4.3-12.8-11-14.5-19.9c-0.2-0.9-0.4-1.8-0.6-2.6c0-1.8,0-3.5,0-5.3c0.2-1,0.4-2,0.6-2.9c1.1-5.9,3.7-10.9,8.1-15
				c4.8-4.5,10.7-7,17.1-7.9c0.9-0.1,1.8-0.3,2.7-0.4C35.1,0,37.2,0,39.2,0z"/>
		</g>
	</g>
</g>
<g id="Layer_4" display="none">
	<g id="O9BfwT.tif" display="inline">
		<g>
			<path fill="#262626" stroke="#262626" stroke-width="9" stroke-miterlimit="10" d="M225.1,76.8c0,57,0,114,0,171
				c-2.9,9.1-8.9,15.1-18,18c-48.7,0-97.3,0-146,0c-9.1-2.9-15.2-8.8-18-18c0-70,0-140,0-210c2.8-9.2,8.8-15.2,18-18
				c35.7,0,71.3,0,107,0C187.1,38.8,206.1,57.8,225.1,76.8z M160.7,30.8c-2.3,0-3.9,0-5.6,0c-29,0-58,0-87,0c-10.4,0-14,3.7-14,14.2
				c0,65.1,0,130.3,0,195.4c0,10.8,3.6,14.4,14.4,14.4c43.7,0,87.3,0,131,0c11.2,0,14.7-3.5,14.7-14.5c0-50,0-100,0-150
				c0-1.8,0-3.6,0-6.1c-2.1,0-3.9,0-5.7,0c-13.3,0-26.7,0-40,0c-6.3,0-7.7-1.4-7.7-7.7c-0.1-12,0-24,0-36
				C160.7,37.4,160.7,34.3,160.7,30.8z M204.2,73.1c-10.7-10.7-21.7-21.6-32.2-32.2c0,10.2,0,21.2,0,32.2
				C183.3,73.1,194.2,73.1,204.2,73.1z"/>
			<path fill="#262626" stroke="#262626" stroke-width="9" stroke-miterlimit="10" d="M134.2,97.4c15.3,0,30.6,0.1,45.9,0
				c3.9,0,7.3,0.7,7.2,5.4c-0.1,4.6-3.4,5.5-7.3,5.5c-30.6,0-61.2,0-91.8,0c-3.9,0-7.2-1.1-7.2-5.6c0-4.7,3.5-5.3,7.3-5.3
				C103.6,97.4,118.9,97.4,134.2,97.4z"/>
			<path fill="#262626" stroke="#262626" stroke-width="9" stroke-miterlimit="10" d="M134.2,193.3c-15.3,0-30.6-0.1-45.9,0
				c-3.9,0-7.3-0.6-7.4-5.3c0-4.5,3.3-5.6,7.2-5.6c30.6,0,61.2,0,91.8,0c3.9,0,7.3,0.9,7.3,5.5c0.1,4.7-3.3,5.5-7.2,5.4
				C164.8,193.3,149.5,193.3,134.2,193.3z"/>
			<path fill="#262626" stroke="#262626" stroke-width="9" stroke-miterlimit="10" d="M134.1,150.7c-14.5,0-29,0-43.5,0
				c-1.3,0-2.7,0-4,0c-3.5-0.2-5.8-1.8-5.8-5.5c0.1-3.7,2.6-5.1,6-5.3c1,0,2,0,3,0c29.5,0,59,0,88.5,0c1.5,0,3.4-0.4,4.4,0.3
				c1.8,1.3,4.5,3.4,4.3,4.9c-0.2,1.9-2.6,3.9-4.5,5.3c-1,0.7-2.9,0.3-4.4,0.3C163.5,150.8,148.8,150.7,134.1,150.7z"/>
		</g>
	</g>
</g>
</svg>
